<svg viewBox="0 0 120 120" xmlns="http://www.w3.org/2000/svg"><defs><radialGradient id="ctg" cx="45%" cy="40%"><stop offset="0%" stop-color="#FFB74D"/><stop offset="100%" stop-color="#FF8C00"/></radialGradient><filter id="cts"><feDropShadow dx="1" dy="3" stdDeviation="2" flood-opacity="0.15"/></filter></defs><g filter="url(#cts)"><ellipse cx="60" cy="76" rx="28" ry="20" fill="url(#ctg)"/><circle cx="60" cy="48" r="18" fill="#FF8C00"/><path d="M46 36l-6-20 16 12" fill="#FF8C00"/><path d="M74 36l6-20-16 12" fill="#FF8C00"/><path d="M46 36l-4-14 14 10" fill="#FF6600" opacity="0.5"/><path d="M74 36l4-14-14 10" fill="#FF6600" opacity="0.5"/><ellipse cx="46" cy="28" rx="4" ry="5" fill="#FFB6C1" opacity="0.5"/><ellipse cx="74" cy="28" rx="4" ry="5" fill="#FFB6C1" opacity="0.5"/><circle cx="52" cy="46" r="3" fill="#333"/><circle cx="68" cy="46" r="3" fill="#333"/><circle cx="53" cy="45" r="1" fill="#FFF"/><circle cx="69" cy="45" r="1" fill="#FFF"/><ellipse cx="60" cy="52" rx="2.5" ry="2" fill="#FF69B4"/><line x1="40" y1="48" x2="50" y2="50" stroke="#5D4037" stroke-width="1"/><line x1="40" y1="52" x2="50" y2="52" stroke="#5D4037" stroke-width="1"/><line x1="70" y1="50" x2="80" y2="48" stroke="#5D4037" stroke-width="1"/><line x1="70" y1="52" x2="80" y2="52" stroke="#5D4037" stroke-width="1"/><path d="M86 72q14-6 12 8q-3 8-10 2" fill="#FF8C00"/><ellipse cx="48" cy="92" rx="6" ry="10" fill="#FF8C00"/><ellipse cx="72" cy="92" rx="6" ry="10" fill="#FF8C00"/><ellipse cx="48" cy="92" rx="3" ry="5" fill="#FF6600" opacity="0.3"/><ellipse cx="72" cy="92" rx="3" ry="5" fill="#FF6600" opacity="0.3"/></g></svg>