<svg viewBox="0 0 120 120" xmlns="http://www.w3.org/2000/svg"><defs><radialGradient id="dg" cx="45%" cy="40%"><stop offset="0%" stop-color="#DEB887"/><stop offset="100%" stop-color="#A0522D"/></radialGradient><filter id="ds"><feDropShadow dx="1" dy="3" stdDeviation="2" flood-opacity="0.15"/></filter></defs><g filter="url(#ds)"><ellipse cx="60" cy="76" rx="30" ry="22" fill="url(#dg)"/><circle cx="60" cy="50" r="20" fill="#CD853F"/><ellipse cx="42" cy="38" rx="10" ry="16" fill="#A0522D" transform="rotate(-15 42 38)"/><ellipse cx="78" cy="38" rx="10" ry="16" fill="#A0522D" transform="rotate(15 78 38)"/><ellipse cx="42" cy="38" rx="6" ry="10" fill="#8B4513" transform="rotate(-15 42 38)" opacity="0.4"/><ellipse cx="78" cy="38" rx="6" ry="10" fill="#8B4513" transform="rotate(15 78 38)" opacity="0.4"/><circle cx="52" cy="46" r="3.5" fill="#333"/><circle cx="68" cy="46" r="3.5" fill="#333"/><circle cx="53" cy="45" r="1.2" fill="#FFF"/><circle cx="69" cy="45" r="1.2" fill="#FFF"/><ellipse cx="60" cy="56" rx="6" ry="4.5" fill="#333"/><ellipse cx="60" cy="55" rx="4" ry="2" fill="#4A2800"/><path d="M56 60q4 5 8 0" stroke="#FF6347" fill="none" stroke-width="2" stroke-linecap="round"/><path d="M88 72q12 0 10-10" stroke="#A0522D" fill="none" stroke-width="5" stroke-linecap="round"/><ellipse cx="48" cy="94" rx="6" ry="8" fill="#CD853F"/><ellipse cx="72" cy="94" rx="6" ry="8" fill="#CD853F"/><ellipse cx="48" cy="94" rx="3" ry="4" fill="#8B4513" opacity="0.3"/><ellipse cx="72" cy="94" rx="3" ry="4" fill="#8B4513" opacity="0.3"/></g></svg>