<svg viewBox="0 0 120 120" xmlns="http://www.w3.org/2000/svg"><defs><radialGradient id="hg" cx="45%" cy="40%"><stop offset="0%" stop-color="#A1887F"/><stop offset="100%" stop-color="#8B4513"/></radialGradient><filter id="hs"><feDropShadow dx="1" dy="3" stdDeviation="2" flood-opacity="0.15"/></filter></defs><g filter="url(#hs)"><ellipse cx="60" cy="76" rx="30" ry="20" fill="url(#hg)"/><circle cx="60" cy="46" r="16" fill="#8B4513"/><path d="M46 36q-8-18 2-22q5 10 10 14" fill="#5D3A1A"/><path d="M74 36q8-18-2-22q-5 10-10 14" fill="#5D3A1A"/><path d="M46 36q-3-14 5-18" fill="#5D3A1A"/><path d="M74 36q3-14-5-18" fill="#5D3A1A"/><circle cx="54" cy="44" r="2.5" fill="#333"/><circle cx="66" cy="44" r="2.5" fill="#333"/><circle cx="55" cy="43" r="0.8" fill="#FFF"/><circle cx="67" cy="43" r="0.8" fill="#FFF"/><ellipse cx="60" cy="50" rx="6" ry="4" fill="#5D3A1A"/><path d="M88 72q12-4 10 10q-4 8-12 0" fill="#5D3A1A"/><ellipse cx="46" cy="94" rx="6" ry="10" fill="#8B4513"/><ellipse cx="74" cy="94" rx="6" ry="10" fill="#8B4513"/><ellipse cx="46" cy="94" rx="3" ry="5" fill="#6D4C41" opacity="0.3"/><ellipse cx="74" cy="94" rx="3" ry="5" fill="#6D4C41" opacity="0.3"/></g></svg>