<svg viewBox="0 0 120 120" xmlns="http://www.w3.org/2000/svg"><defs><radialGradient id="pg" cx="45%" cy="40%"><stop offset="0%" stop-color="#FFD1DC"/><stop offset="100%" stop-color="#FFB6C1"/></radialGradient><filter id="ps"><feDropShadow dx="1" dy="3" stdDeviation="2" flood-opacity="0.15"/></filter></defs><g filter="url(#ps)"><ellipse cx="60" cy="76" rx="30" ry="22" fill="url(#pg)"/><circle cx="60" cy="50" r="20" fill="#FFC0CB"/><ellipse cx="60" cy="55" rx="10" ry="7" fill="#FF69B4"/><circle cx="60" cy="53" r="2.5" fill="#E91E63"/><circle cx="52" cy="45" r="3.5" fill="#333"/><circle cx="68" cy="45" r="3.5" fill="#333"/><circle cx="53" cy="44" r="1.2" fill="#FFF"/><circle cx="69" cy="44" r="1.2" fill="#FFF"/><path d="M46 34l6-12 6 12" fill="#FF69B4"/><path d="M62 34l6-12 6 12" fill="#FF69B4"/><ellipse cx="46" cy="34" rx="4" ry="3" fill="#FF69B4" opacity="0.5"/><ellipse cx="74" cy="34" rx="4" ry="3" fill="#FF69B4" opacity="0.5"/><path d="M88 72q10-8 6 4" stroke="#FF69B4" fill="none" stroke-width="3" stroke-linecap="round"/><ellipse cx="48" cy="94" rx="6" ry="8" fill="#FFB6C1"/><ellipse cx="72" cy="94" rx="6" ry="8" fill="#FFB6C1"/><ellipse cx="48" cy="94" rx="3" ry="4" fill="#FF69B4" opacity="0.3"/><ellipse cx="72" cy="94" rx="3" ry="4" fill="#FF69B4" opacity="0.3"/><ellipse cx="60" cy="57" rx="3" ry="2" fill="#FF1493" opacity="0.3"/></g></svg>