<svg viewBox="0 0 120 120" xmlns="http://www.w3.org/2000/svg"><defs><radialGradient id="rg" cx="45%" cy="40%"><stop offset="0%" stop-color="#F5F5F5"/><stop offset="100%" stop-color="#E0E0E0"/></radialGradient><filter id="rs"><feDropShadow dx="1" dy="3" stdDeviation="2" flood-opacity="0.15"/></filter></defs><g filter="url(#rs)"><ellipse cx="60" cy="78" rx="26" ry="22" fill="url(#rg)"/><circle cx="60" cy="50" r="18" fill="#E0E0E0"/><ellipse cx="48" cy="20" rx="8" ry="24" fill="#E0E0E0"/><ellipse cx="72" cy="20" rx="8" ry="24" fill="#E0E0E0"/><ellipse cx="48" cy="20" rx="5" ry="20" fill="#FFB6C1"/><ellipse cx="72" cy="20" rx="5" ry="20" fill="#FFB6C1"/><circle cx="54" cy="47" r="3" fill="#333"/><circle cx="66" cy="47" r="3" fill="#333"/><circle cx="55" cy="46" r="1" fill="#FFF"/><circle cx="67" cy="46" r="1" fill="#FFF"/><ellipse cx="60" cy="54" rx="3" ry="2.5" fill="#FFB6C1"/><circle cx="60" cy="96" r="6" fill="#E0E0E0"/><ellipse cx="48" cy="96" rx="5" ry="7" fill="#E0E0E0"/><ellipse cx="72" cy="96" rx="5" ry="7" fill="#E0E0E0"/><ellipse cx="48" cy="96" rx="2.5" ry="3.5" fill="#BDBDBD" opacity="0.3"/><ellipse cx="72" cy="96" rx="2.5" ry="3.5" fill="#BDBDBD" opacity="0.3"/></g></svg>